# xmcd
#
# Track frame offsets: 
#        150
#        3970
#        26657
#        46957
#        60472
#        70567
#        89390
#        102607
#        114392
#        132665
#        140865
#        159530
#        169142
#        196347
#
# Disc length: 2878 seconds
#
# Revision: 1
# Processed by: cddbd v1.5.1PL0 Copyright (c) Steve Scherf et al.
# Submitted via: ExactAudioCopy v0.95a5
#
DISCID=c20b3c0e
DTITLE=Keith Bear ands Gary Stroutsos and Nellie Youpee - People of th
DTITLE=e Willows
DYEAR=1900
DGENRE=Native American
TTITLE0=Woman's Work Song
TTITLE1=The People of the Willows
TTITLE2=Mandan Heartbreak Song
TTITLE3=Hidatsa Contest Song
TTITLE4=The Enemy Came as a Wolf
TTITLE5=The Origin Song
TTITLE6=Walking on the Water
TTITLE7=For the Mandan Children
TTITLE8=Warrior's Song
TTITLE9=Dancing Song of the Skunk
TTITLE10=Sanish Remembered
TTITLE11=Mandan Song
TTITLE12=The Corn is My Pleasure
TTITLE13=Traces of Hope
EXTD=ID3G: 64
EXTT0=
EXTT1=
EXTT2=
EXTT3=
EXTT4=
EXTT5=
EXTT6=
EXTT7=
EXTT8=
EXTT9=
EXTT10=
EXTT11=
EXTT12=
EXTT13=
PLAYORDER=
